<svg width="45" height="45" viewBox="0 0 45 45" fill="none" xmlns="http://www.w3.org/2000/svg">
<g id="location_icon">
<circle id="Ellipse 1" cx="25" cy="25" r="20" fill="#EBAA10"/>
<g id="&#240;&#159;&#166;&#134; icon &#34;Alternate Map Marker&#34;">
<path id="Vector" d="M23.0938 41.6289C14.5803 27.0891 13 25.5968 13 20.2532C13 12.9337 18.0368 7 24.25 7C30.4632 7 35.5 12.9337 35.5 20.2532C35.5 25.5968 33.9197 27.0891 25.4062 41.6289C24.8475 42.5797 23.6525 42.5796 23.0938 41.6289ZM24.25 25.7754C26.8388 25.7754 28.9375 23.3031 28.9375 20.2532C28.9375 17.2034 26.8388 14.7311 24.25 14.7311C21.6612 14.7311 19.5625 17.2034 19.5625 20.2532C19.5625 23.3031 21.6612 25.7754 24.25 25.7754Z" fill="white"/>
</g>
</g>
</svg>
