

<svg width="29" height="26" viewBox="0 0 29 26" fill="none" xmlns="http://www.w3.org/2000/svg">
<g id="&#240;&#159;&#166;&#134; icon &#34;Envelope&#34;">
<path id="Vector" d="M26.2812 0H2.71875C1.21721 0 0 1.41897 0 3.16942V22.1859C0 23.9364 1.21721 25.3553 2.71875 25.3553H26.2812C27.7828 25.3553 29 23.9364 29 22.1859V3.16942C29 1.41897 27.7828 0 26.2812 0ZM26.2812 3.16942V5.86375C25.0113 7.06938 22.9866 8.94409 18.6582 12.8952C17.7043 13.7699 15.8147 15.8713 14.5 15.8468C13.1855 15.8716 11.2953 13.7696 10.3418 12.8952C6.0141 8.94469 3.98892 7.06958 2.71875 5.86375V3.16942H26.2812ZM2.71875 22.1859V9.93071C4.01661 11.1358 5.85715 12.8269 8.6625 15.3878C9.9005 16.5238 12.0685 19.0317 14.5 19.0164C16.9195 19.0317 19.0601 16.5602 20.337 15.3883C23.1423 12.8275 24.9833 11.1359 26.2812 9.93077V22.1859H2.71875Z" fill="white"/>
</g>
</svg>
