<svg width="40" height="40" viewBox="0 0 30 31" fill="none" xmlns="http://www.w3.org/2000/svg">
<g id="&#240;&#159;&#166;&#134; icon &#34;What&#39;s App&#34;">
<path id="Vector" d="M25.5067 4.42134C22.7009 1.56886 18.9643 0 14.9933 0C6.79687 0 0.127232 6.76444 0.127232 15.0774C0.127232 17.7329 0.810268 20.3273 2.10938 22.616L0 30.4264L7.8817 28.3278C10.0513 29.5299 12.4955 30.1615 14.9866 30.1615H14.9933C23.183 30.1615 30 23.3971 30 15.0842C30 11.0567 28.3125 7.27381 25.5067 4.42134ZM14.9933 27.6215C12.7701 27.6215 10.5937 27.017 8.69866 25.876L8.25 25.6044L3.57589 26.8472L4.82143 22.2221L4.52679 21.7467C3.28795 19.75 2.63839 17.4476 2.63839 15.0774C2.63839 8.1703 8.18303 2.54685 15 2.54685C18.3013 2.54685 21.4018 3.85084 23.7321 6.22111C26.0625 8.59138 27.4955 11.7359 27.4888 15.0842C27.4888 21.998 21.8036 27.6215 14.9933 27.6215ZM21.7701 18.2355C21.4018 18.0453 19.5737 17.1352 19.2321 17.013C18.8906 16.8839 18.6429 16.8228 18.3951 17.2031C18.1473 17.5835 17.4375 18.4256 17.2165 18.6837C17.0022 18.935 16.7812 18.969 16.4129 18.7788C14.2299 17.6718 12.7969 16.8024 11.3571 14.2963C10.9754 13.6308 11.7388 13.6783 12.4487 12.2385C12.5692 11.9872 12.5089 11.7699 12.4152 11.5797C12.3214 11.3895 11.5781 9.53541 11.2701 8.78155C10.9688 8.04805 10.6607 8.14993 10.433 8.13634C10.2188 8.12276 9.97098 8.12276 9.72321 8.12276C9.47545 8.12276 9.07366 8.21784 8.73214 8.59138C8.39062 8.97171 7.43304 9.88179 7.43304 11.7359C7.43304 13.59 8.76562 15.383 8.94643 15.6343C9.13393 15.8856 11.5647 19.6889 15.2946 21.3256C17.6518 22.358 18.5759 22.4463 19.7545 22.2697C20.471 22.161 21.9509 21.3596 22.2589 20.4767C22.567 19.5938 22.567 18.8399 22.4732 18.6837C22.3862 18.5139 22.1384 18.4188 21.7701 18.2355Z" fill="white"/>
</g>
</svg>
